{
    "asset" : {
        "generator" : "Khronos glTF Blender I/O v1.4.40",
        "version" : "2.0"
    },
    "scene" : 0,
    "scenes" : [
        {
            "name" : "Scene",
            "nodes" : [
                0,
                1
            ]
        }
    ],
    "nodes" : [
        {
            "mesh" : 0,
            "name" : "simple_door_1",
            "rotation" : [
                0.7071068286895752,
                0,
                0,
                0.7071068286895752
            ],
            "translation" : [
                0,
                1.0625356435775757,
                0
            ]
        },
        {
            "mesh" : 1,
            "name" : "simple_door_1.001",
            "rotation" : [
                0.7071068286895752,
                0,
                0,
                0.7071068286895752
            ],
            "translation" : [
                0.3257177770137787,
                1.0177637338638306,
                -0.054731328040361404
            ]
        }
    ],
    "materials" : [
        {
            "doubleSided" : true,
            "name" : "Material.014",
            "pbrMetallicRoughness" : {
                "metallicFactor" : 0,
                "roughnessFactor" : 0.5
            }
        },
        {
            "doubleSided" : true,
            "name" : "Metal.002",
            "pbrMetallicRoughness" : {
                "baseColorFactor" : [
                    0.46033695340156555,
                    0.46033695340156555,
                    0.46033695340156555,
                    1
                ],
                "roughnessFactor" : 0.5
            }
        }
    ],
    "meshes" : [
        {
            "name" : "Plane.012",
            "primitives" : [
                {
                    "attributes" : {
                        "POSITION" : 0,
                        "NORMAL" : 1,
                        "TEXCOORD_0" : 2
                    },
                    "indices" : 3,
                    "material" : 0
                }
            ]
        },
        {
            "name" : "Plane.002",
            "primitives" : [
                {
                    "attributes" : {
                        "POSITION" : 4,
                        "NORMAL" : 5,
                        "TEXCOORD_0" : 6
                    },
                    "indices" : 7,
                    "material" : 0
                },
                {
                    "attributes" : {
                        "POSITION" : 8,
                        "NORMAL" : 9,
                        "TEXCOORD_0" : 10
                    },
                    "indices" : 11,
                    "material" : 1
                }
            ]
        }
    ],
    "accessors" : [
        {
            "bufferView" : 0,
            "componentType" : 5126,
            "count" : 56,
            "max" : [
                0.3679963946342468,
                0.054731324315071106,
                1.0483404397964478
            ],
            "min" : [
                -0.356967955827713,
                -0.054731324315071106,
                -1.0010751485824585
            ],
            "type" : "VEC3"
        },
        {
            "bufferView" : 1,
            "componentType" : 5126,
            "count" : 56,
            "type" : "VEC3"
        },
        {
            "bufferView" : 2,
            "componentType" : 5126,
            "count" : 56,
            "type" : "VEC2"
        },
        {
            "bufferView" : 3,
            "componentType" : 5123,
            "count" : 84,
            "type" : "SCALAR"
        },
        {
            "bufferView" : 4,
            "componentType" : 5126,
            "count" : 1478,
            "max" : [
                -0.0011049509048461914,
                0.08071157336235046,
                1.0035685300827026
            ],
            "min" : [
                -0.6415120363235474,
                0.02875107154250145,
                -1.0035685300827026
            ],
            "type" : "VEC3"
        },
        {
            "bufferView" : 5,
            "componentType" : 5126,
            "count" : 1478,
            "type" : "VEC3"
        },
        {
            "bufferView" : 6,
            "componentType" : 5126,
            "count" : 1478,
            "type" : "VEC2"
        },
        {
            "bufferView" : 7,
            "componentType" : 5123,
            "count" : 2292,
            "type" : "SCALAR"
        },
        {
            "bufferView" : 8,
            "componentType" : 5126,
            "count" : 6188,
            "max" : [
                -0.49553734064102173,
                0.12121419608592987,
                0.10656553506851196
            ],
            "min" : [
                -0.6215004920959473,
                -0.011751547455787659,
                -0.09935447573661804
            ],
            "type" : "VEC3"
        },
        {
            "bufferView" : 9,
            "componentType" : 5126,
            "count" : 6188,
            "type" : "VEC3"
        },
        {
            "bufferView" : 10,
            "componentType" : 5126,
            "count" : 6188,
            "type" : "VEC2"
        },
        {
            "bufferView" : 11,
            "componentType" : 5123,
            "count" : 23556,
            "type" : "SCALAR"
        }
    ],
    "bufferViews" : [
        {
            "buffer" : 0,
            "byteLength" : 672,
            "byteOffset" : 0
        },
        {
            "buffer" : 0,
            "byteLength" : 672,
            "byteOffset" : 672
        },
        {
            "buffer" : 0,
            "byteLength" : 448,
            "byteOffset" : 1344
        },
        {
            "buffer" : 0,
            "byteLength" : 168,
            "byteOffset" : 1792
        },
        {
            "buffer" : 0,
            "byteLength" : 17736,
            "byteOffset" : 1960
        },
        {
            "buffer" : 0,
            "byteLength" : 17736,
            "byteOffset" : 19696
        },
        {
            "buffer" : 0,
            "byteLength" : 11824,
            "byteOffset" : 37432
        },
        {
            "buffer" : 0,
            "byteLength" : 4584,
            "byteOffset" : 49256
        },
        {
            "buffer" : 0,
            "byteLength" : 74256,
            "byteOffset" : 53840
        },
        {
            "buffer" : 0,
            "byteLength" : 74256,
            "byteOffset" : 128096
        },
        {
            "buffer" : 0,
            "byteLength" : 49504,
            "byteOffset" : 202352
        },
        {
            "buffer" : 0,
            "byteLength" : 47112,
            "byteOffset" : 251856
        }
    ],
    "buffers" : [
        {
            "byteLength" : 298968,
            "uri" : "data:application/octet-stream;base64,"
        }
    ]
}
